<?xml version="1.0" standalone="no"?><!DOCTYPE svg PUBLIC "-//W3C//DTD SVG 1.1//EN" "http://www.w3.org/Graphics/SVG/1.1/DTD/svg11.dtd"><svg t="1594024704160" class="icon" viewBox="0 0 1024 1024" version="1.1" xmlns="http://www.w3.org/2000/svg" p-id="2016" width="32" height="32" xmlns:xlink="http://www.w3.org/1999/xlink"><defs><style type="text/css"></style></defs><path d="M554.666667 853.333333c-5.12 0-11.946667-1.706667-17.066667-3.413333l-262.826667-143.36H145.066667c-18.773333 0-34.133333-15.36-34.133334-34.133333V351.573333c0-18.773333 15.36-34.133333 34.133334-34.133333h131.413333l262.826667-143.36c10.24-5.12 23.893333-5.12 34.133333 0 10.24 6.826667 17.066667 17.066667 17.066667 29.013333v614.4c0 11.946667-6.826667 23.893333-17.066667 29.013334-6.826667 5.12-11.946667 6.826667-18.773333 6.826666z m-375.466667-215.04h105.813333c5.12 0 11.946667 1.706667 17.066667 3.413334l218.453333 119.466666V262.826667l-218.453333 119.466666c-5.12 3.413333-10.24 3.413333-17.066667 3.413334h-105.813333v252.586666z" fill="#3793DF" p-id="2017"></path><path d="M674.133333 602.453333c-18.773333 0-34.133333-15.36-34.133333-34.133333s15.36-34.133333 34.133333-34.133333 34.133333-15.36 34.133334-34.133334-15.36-34.133333-34.133334-34.133333-34.133333-15.36-34.133333-34.133333 15.36-34.133333 34.133333-34.133334c56.32 0 102.4 46.08 102.4 102.4s-46.08 102.4-102.4 102.4z" fill="#EB4AF4" p-id="2018"></path><path d="M674.133333 738.986667c-18.773333 0-34.133333-15.36-34.133333-34.133334s15.36-34.133333 34.133333-34.133333c93.866667 0 170.666667-76.8 170.666667-170.666667s-76.8-170.666667-170.666667-170.666666c-18.773333 0-34.133333-15.36-34.133333-34.133334s15.36-34.133333 34.133333-34.133333c131.413333 0 238.933333 107.52 238.933334 238.933333s-107.52 238.933333-238.933334 238.933334z" fill="#EB4AF4" p-id="2019"></path></svg>